<svg id="Layer_1" data-name="Layer 1" xmlns="http://www.w3.org/2000/svg" viewBox="0 0 200 250"><defs><style>.cls-1{fill:none;stroke:#4f4f4f;stroke-linecap:round;stroke-linejoin:round;stroke-width:2px;}.cls-2,.cls-4{fill:#4f4f4f;}.cls-3{fill:#fff;}.cls-4{font-size:70.39px;font-family:Montserrat-Medium, Montserrat;font-weight:500;}</style></defs><title>Untitled-1</title><line class="cls-1" x1="-96.33" y1="201.53" x2="308.41" y2="201.53"/><rect class="cls-2" x="112.63" y="71.57" width="2.09" height="19.27" transform="translate(-24.4 59.95) rotate(-26.79)"/><path class="cls-2" d="M119.17,94.93a2.29,2.29,0,0,1-1.13-.31l-1.89-1.1a2.25,2.25,0,0,1,.13-4l3.42-1.71a2.23,2.23,0,0,1,2.18.1l2.21,1.37a2.25,2.25,0,0,1-.38,4L120,94.78A2.32,2.32,0,0,1,119.17,94.93Zm1.53-5.21h-.07l-3.42,1.71a.13.13,0,0,0-.08.13.15.15,0,0,0,.08.15l1.88,1.09a.14.14,0,0,0,.14,0L123,91.39a.13.13,0,0,0,.1-.13.14.14,0,0,0-.07-.15l-2.21-1.37Z"/><path class="cls-2" d="M67.44,67.68c0-.41,1.46-.79,1.46-1.2s-1.45-.79-1.46-1.19,1.41-.89,1.38-1.29-1.49-.7-1.53-1.1,1.35-1,1.3-1.37-1.54-.6-1.6-1,1.28-1.05,1.2-1.45-1.57-.5-1.66-.89,1.22-1.14,1.11-1.53-1.6-.39-1.71-.78,1.14-1.21,1-1.6-1.62-.29-1.76-.67,1-1.28.9-1.65-1.63-.19-1.8-.56,1-1.35.8-1.71-1.65-.08-1.84-.44.89-1.41.69-1.76-1.65,0-1.86-.32.79-1.46.57-1.8-1.64.13-1.88-.2.7-1.51.46-1.83-1.63.23-1.89-.09.6-1.54.34-1.85-1.61.34-1.88,0,.5-1.59.21-1.88-1.58.44-1.88.16.4-1.61.1-1.88-1.55.54-1.86.27.29-1.63,0-1.88-1.51.64-1.84.39.19-1.64-.14-1.88-1.48.74-1.82.51.09-1.65-.26-1.86-1.43.82-1.78.62,0-1.65-.38-1.84-1.37.91-1.74.74-.12-1.65-.5-1.82-1.3,1-1.68.85-.23-1.64-.61-1.78-1.24,1.08-1.63,1-.34-1.63-.73-1.74-1.17,1.16-1.56,1.06-.44-1.6-.84-1.69S37.73,30,37.33,29.91s-.54-1.57-.95-1.63-1,1.3-1.41,1.25-.64-1.53-1-1.57S33,29.33,32.59,29.3s-.74-1.48-1.14-1.49-.84,1.42-1.24,1.42-.84-1.44-1.24-1.42-.75,1.47-1.15,1.49-.93-1.38-1.33-1.34-.65,1.52-1,1.57-1-1.32-1.41-1.25-.55,1.55-1,1.63S22,28.66,21.59,28.75s-.45,1.58-.84,1.69-1.17-1.18-1.56-1.06-.34,1.61-.73,1.73-1.24-1.09-1.62-.95-.24,1.63-.62,1.78-1.31-1-1.68-.85-.14,1.64-.5,1.82-1.38-.93-1.73-.74,0,1.64-.39,1.84-1.43-.83-1.77-.62.07,1.64-.27,1.86-1.48-.74-1.81-.51.18,1.64-.15,1.88S6.4,36,6.08,36.23s.29,1.62,0,1.88-1.57-.55-1.87-.28.39,1.61.1,1.89-1.6-.45-1.88-.16.49,1.57.22,1.87S1,41.09.74,41.4s.59,1.53.34,1.85S-.56,43-.8,43.33s.68,1.5.45,1.83S-2,45-2.23,45.37s.78,1.45.57,1.79-1.65,0-1.85.33.87,1.39.68,1.75-1.66.08-1.83.45,1,1.33.79,1.7-1.65.19-1.8.56,1,1.28.91,1.66-1.64.29-1.77.67,1.13,1.21,1,1.6-1.61.39-1.71.78,1.2,1.13,1.11,1.53-1.58.49-1.66.89,1.27,1.05,1.2,1.45-1.54.6-1.59,1,1.33,1,1.29,1.37-1.5.69-1.53,1.1S-7,64.88-7,65.29s-1.46.78-1.46,1.19S-7,67.27-7,67.68s-1.41.88-1.38,1.28,1.49.7,1.53,1.1-1.35,1-1.29,1.37,1.53.6,1.59,1-1.28,1-1.2,1.45,1.57.5,1.66.89-1.21,1.14-1.11,1.53,1.6.4,1.71.78-1.13,1.21-1,1.6,1.62.29,1.76.67-1.05,1.28-.9,1.65,1.64.19,1.8.56-1,1.35-.79,1.71,1.64.08,1.83.44-.88,1.41-.69,1.76,1.65,0,1.86.32-.79,1.46-.57,1.8,1.64-.13,1.88.2S-1,89.3-.81,89.62s1.63-.23,1.89.09-.6,1.54-.34,1.85,1.61-.34,1.89,0-.5,1.59-.22,1.88S4,93,4.29,93.24s-.4,1.61-.1,1.88,1.56-.54,1.86-.27-.29,1.63,0,1.88,1.52-.64,1.84-.39-.19,1.64.14,1.88,1.48-.74,1.82-.51-.08,1.65.26,1.86,1.43-.82,1.78-.62,0,1.65.38,1.84,1.37-.91,1.74-.74.13,1.66.5,1.82,1.3-1,1.68-.85.23,1.64.62,1.78,1.24-1.08,1.62-1,.34,1.62.73,1.73,1.17-1.16,1.56-1.06.45,1.6.84,1.69,1.09-1.23,1.49-1.16.55,1.57,1,1.63,1-1.3,1.41-1.25.64,1.53,1,1.57.92-1.37,1.33-1.34.74,1.48,1.15,1.49.83-1.42,1.24-1.42.83,1.44,1.24,1.42.74-1.47,1.14-1.49.93,1.38,1.33,1.34.65-1.52,1-1.57,1,1.32,1.41,1.25.55-1.55.95-1.63,1.09,1.25,1.49,1.16.45-1.58.84-1.69,1.17,1.18,1.56,1.06.34-1.61.73-1.73,1.24,1.09,1.62,1,.24-1.63.62-1.78,1.31,1,1.68.85.14-1.64.5-1.82,1.38.93,1.74.74,0-1.64.38-1.84,1.43.84,1.78.62-.08-1.64.26-1.86,1.48.74,1.81.51-.18-1.64.15-1.88,1.52.65,1.84.39-.29-1.62,0-1.88,1.57.55,1.87.28-.39-1.6-.1-1.89,1.6.45,1.88.16-.49-1.57-.22-1.87,1.62.34,1.89,0-.59-1.53-.34-1.85,1.64.24,1.89-.08-.69-1.5-.46-1.83,1.66.13,1.88-.21-.78-1.45-.57-1.79,1.66,0,1.86-.33-.88-1.39-.69-1.75,1.66-.08,1.83-.44-1-1.34-.79-1.71,1.65-.19,1.8-.56-1-1.28-.9-1.66,1.63-.29,1.76-.67-1.13-1.2-1-1.59,1.61-.4,1.71-.79-1.2-1.13-1.11-1.53,1.59-.49,1.66-.89-1.27-1-1.2-1.45,1.54-.6,1.6-1-1.34-1-1.3-1.37,1.51-.69,1.53-1.1S67.43,68.08,67.44,67.68ZM-3.7,58.13a34.85,34.85,0,0,1,30.83-26.7A38.3,38.3,0,0,0-3.7,58.13ZM30.21,98.66A32.18,32.18,0,1,1,62.38,66.48,32.18,32.18,0,0,1,30.21,98.66Z"/><path class="cls-2" d="M30.09,34.88a31.51,31.51,0,1,0,31.5,31.5A31.54,31.54,0,0,0,30.09,34.88Zm2.59,30.34-.92.39.73-.72A3.54,3.54,0,0,1,32.68,65.22ZM33,66.3H32l.95-.4A2.73,2.73,0,0,1,33,66.3Zm-.14,1L32.05,67h.89A1.7,1.7,0,0,1,32.84,67.34Zm-.51.93-.61-.61.82.34A2.78,2.78,0,0,1,32.33,68.27Zm-.78.64-.3-.69.55.54C31.72,68.82,31.63,68.86,31.55,68.91Zm-2.94-.15.59-.59-.3.76A1.69,1.69,0,0,1,28.61,68.76ZM27.89,68l.76-.32-.56.56A2.31,2.31,0,0,1,27.89,68Zm-.42-1h1l-.85.36C27.54,67.26,27.5,67.15,27.47,67Zm0-1.08.89.36h-.93C27.44,66.18,27.45,66.06,27.47,65.94Zm.45-1,.78.77-1-.4A2.22,2.22,0,0,1,27.92,64.89Zm.82-.77.42,1-.75-.74A2.52,2.52,0,0,1,28.74,64.12Zm3.26.24-.78.78h0l.41-1A3.09,3.09,0,0,1,32,64.36Zm-1.43.46V63.73a2.57,2.57,0,0,1,.4.08Zm-.72,0h0l-.43-1a3,3,0,0,1,.45-.09Zm0,3.68v.72l-.28,0Zm.72-.07.31.74-.31,0Zm2.56-8,8.79-21.66a30.05,30.05,0,0,1,9.36,6.33L34.8,61.55A6.67,6.67,0,0,0,33.13,60.41Zm-.66-.28a6.68,6.68,0,0,0-1.9-.38V36.33a30,30,0,0,1,10.69,2.15ZM29.85,36.32V59.75a7,7,0,0,0-2,.41L18.73,38.57l-.67.28,9.13,21.6a6.68,6.68,0,0,0-1.58,1.1L9,45A30,30,0,0,1,29.85,36.32ZM8.51,45.47l16.6,16.6A6.72,6.72,0,0,0,24,63.77L2.29,54.94A30.12,30.12,0,0,1,8.51,45.47ZM2,55.61l21.75,8.83a6.7,6.7,0,0,0-.3,1.86H0A29.9,29.9,0,0,1,2,55.61ZM23.48,67a7.09,7.09,0,0,0,.44,1.91L2.37,78A29.9,29.9,0,0,1,0,67ZM2.67,78.69l21.55-9.11a6.57,6.57,0,0,0,1.06,1.5L8.78,87.58A30,30,0,0,1,2.67,78.69ZM25.8,71.58a6.73,6.73,0,0,0,1.6,1L18.65,94.18a30.17,30.17,0,0,1-9.35-6.1Zm2.27,1.3a6.52,6.52,0,0,0,1.78.33V96.44a29.9,29.9,0,0,1-10.53-2Zm2.5,23.56V73.21a6.74,6.74,0,0,0,1.86-.36l9,21.36A29.94,29.94,0,0,1,30.57,96.44Zm11.55-2.51-9-21.36a6.52,6.52,0,0,0,1.52-1L51,88A30.17,30.17,0,0,1,42.12,93.93Zm9.39-6.48L35.13,71.08a6.68,6.68,0,0,0,1.1-1.58l21.49,8.72A30.18,30.18,0,0,1,51.51,87.45ZM58,77.55,36.52,68.84A6.51,6.51,0,0,0,36.93,67H60.14A29.74,29.74,0,0,1,58,77.55ZM37,66.3a6.66,6.66,0,0,0-.35-2L58,55.3a30,30,0,0,1,2.12,11Zm-.61-2.62a6.63,6.63,0,0,0-1-1.61L51.78,45.6a30.24,30.24,0,0,1,6,9Z"/><path class="cls-2" d="M202.4,67.68c0-.41,1.45-.79,1.45-1.2s-1.44-.79-1.45-1.19,1.4-.89,1.38-1.29-1.5-.7-1.53-1.1,1.34-1,1.29-1.37-1.53-.6-1.6-1,1.29-1.05,1.21-1.45-1.57-.5-1.66-.89,1.21-1.14,1.11-1.53-1.6-.39-1.72-.78,1.14-1.21,1-1.6-1.62-.29-1.76-.67,1.06-1.28.91-1.65-1.64-.19-1.8-.56,1-1.35.79-1.71-1.64-.08-1.83-.44.88-1.41.68-1.76-1.64,0-1.86-.32.8-1.46.57-1.8-1.64.13-1.87-.2.7-1.51.45-1.83-1.63.23-1.88-.09.6-1.54.34-1.85-1.62.34-1.89,0,.5-1.59.22-1.88-1.59.44-1.88.16.4-1.61.1-1.88-1.56.54-1.87.27.3-1.63,0-1.88-1.52.64-1.84.39.18-1.64-.15-1.88-1.47.74-1.81.51.08-1.65-.27-1.86-1.42.82-1.77.62,0-1.65-.39-1.84-1.36.91-1.73.74-.13-1.65-.5-1.82-1.31,1-1.68.85-.24-1.64-.62-1.78-1.24,1.08-1.62,1-.34-1.63-.73-1.74-1.17,1.16-1.56,1.06-.45-1.6-.85-1.69-1.08,1.23-1.48,1.16-.55-1.57-.95-1.63-1,1.3-1.41,1.25S169.28,28,168.88,28s-.92,1.37-1.33,1.34-.74-1.48-1.15-1.49-.83,1.42-1.24,1.42-.84-1.44-1.24-1.42-.74,1.47-1.15,1.49-.92-1.38-1.33-1.34-.64,1.52-1.05,1.57-1-1.32-1.41-1.25-.55,1.55-.94,1.63-1.1-1.25-1.49-1.16-.45,1.58-.84,1.69-1.17-1.18-1.56-1.06-.35,1.61-.73,1.73-1.25-1.09-1.63-.95-.24,1.63-.61,1.78-1.31-1-1.68-.85-.14,1.64-.51,1.82-1.37-.93-1.73-.74,0,1.64-.38,1.84-1.43-.83-1.78-.62.08,1.64-.26,1.86-1.48-.74-1.82-.51.18,1.64-.14,1.88-1.53-.65-1.84-.39.28,1.62,0,1.88-1.56-.55-1.86-.28.39,1.61.1,1.89-1.6-.45-1.88-.16.49,1.57.21,1.87-1.62-.34-1.88,0,.59,1.53.33,1.85-1.64-.24-1.88.08.69,1.5.45,1.83-1.65-.13-1.87.21.78,1.45.57,1.79-1.66,0-1.86.33.87,1.39.69,1.75-1.66.08-1.84.45,1,1.33.8,1.7-1.65.19-1.8.56,1,1.28.9,1.66-1.63.29-1.76.67,1.12,1.21,1,1.6-1.61.39-1.72.78,1.2,1.13,1.11,1.53-1.58.49-1.66.89,1.27,1.05,1.21,1.45-1.55.6-1.6,1,1.33,1,1.3,1.37-1.51.69-1.53,1.1,1.39.88,1.38,1.29-1.46.78-1.46,1.19,1.44.79,1.46,1.2-1.41.88-1.38,1.28,1.49.7,1.53,1.1-1.35,1-1.3,1.37,1.53.6,1.6,1-1.28,1-1.21,1.45,1.57.5,1.66.89-1.21,1.14-1.11,1.53,1.6.4,1.72.78-1.14,1.21-1,1.6,1.62.29,1.76.67-1.06,1.28-.9,1.65,1.63.19,1.8.56-1,1.35-.8,1.71,1.65.08,1.83.44-.88,1.41-.68,1.76,1.65,0,1.86.32-.79,1.46-.57,1.8,1.64-.13,1.87.2-.69,1.51-.45,1.83,1.63-.23,1.88.09-.6,1.54-.33,1.85,1.61-.34,1.88,0-.5,1.59-.22,1.88,1.59-.44,1.88-.16-.4,1.61-.09,1.88,1.55-.54,1.86-.27-.29,1.63,0,1.88,1.52-.64,1.85-.39-.19,1.64.14,1.88,1.47-.74,1.81-.51-.08,1.65.27,1.86,1.42-.82,1.78-.62,0,1.65.38,1.84,1.37-.91,1.73-.74.13,1.66.5,1.82,1.31-1,1.69-.85.23,1.64.61,1.78,1.24-1.08,1.63-1,.34,1.62.73,1.73,1.16-1.16,1.56-1.06.44,1.6.84,1.69,1.09-1.23,1.49-1.16.54,1.57.94,1.63,1-1.3,1.41-1.25S161,105,161.45,105s.92-1.37,1.32-1.34.74,1.48,1.15,1.49.83-1.42,1.24-1.42.84,1.44,1.24,1.42.75-1.47,1.15-1.49.92,1.38,1.33,1.34.65-1.52,1.05-1.57,1,1.32,1.41,1.25.55-1.55.95-1.63,1.09,1.25,1.48,1.16.45-1.58.84-1.69,1.17,1.18,1.56,1.06.35-1.61.73-1.73,1.25,1.09,1.63,1,.24-1.63.61-1.78,1.32,1,1.69.85.13-1.64.5-1.82,1.37.93,1.73.74,0-1.64.38-1.84,1.43.84,1.78.62-.08-1.64.26-1.86,1.49.74,1.82.51-.18-1.64.14-1.88,1.53.65,1.85.39-.29-1.62,0-1.88,1.56.55,1.86.28-.39-1.6-.09-1.89,1.59.45,1.88.16-.49-1.57-.22-1.87,1.62.34,1.88,0-.59-1.53-.33-1.85,1.64.24,1.88-.08-.68-1.5-.45-1.83,1.65.13,1.87-.21-.78-1.45-.57-1.79,1.66,0,1.86-.33-.87-1.39-.68-1.75,1.65-.08,1.83-.44-1-1.34-.8-1.71,1.65-.19,1.81-.56-1-1.28-.91-1.66,1.63-.29,1.76-.67-1.12-1.2-1-1.59,1.61-.4,1.72-.79-1.2-1.13-1.11-1.53,1.58-.49,1.66-.89-1.27-1-1.21-1.45,1.55-.6,1.6-1-1.33-1-1.29-1.37,1.5-.69,1.53-1.1S202.38,68.08,202.4,67.68Zm-71.14-9.55a34.84,34.84,0,0,1,30.83-26.7A38.28,38.28,0,0,0,131.26,58.13Zm33.9,40.53a32.18,32.18,0,1,1,32.18-32.18A32.18,32.18,0,0,1,165.16,98.66Z"/><path class="cls-2" d="M165,34.88a31.51,31.51,0,1,0,31.51,31.5A31.53,31.53,0,0,0,165,34.88Zm28.21,20.3-.27.12a29.84,29.84,0,0,1,2.13,11h.4V67h-.42A30,30,0,0,1,193,77.55l.46.19-.27.67-.46-.19a30,30,0,0,1-6.22,9.23l.41.41-.51.51L186,88a30.08,30.08,0,0,1-8.88,6l.23.54-.66.28-.23-.54a29.9,29.9,0,0,1-10.89,2.23V97h-.72v-.57a30,30,0,0,1-10.53-2l-.19.46-.66-.27.18-.46a30.12,30.12,0,0,1-9.34-6.1l-.3.29-.51-.51.29-.28a30.27,30.27,0,0,1-6.12-8.89l-.27.11-.28-.66.26-.11A29.71,29.71,0,0,1,135,67h-.17V66.3H135a29.9,29.9,0,0,1,2-10.69l-.07,0,.27-.66.06,0a30.14,30.14,0,0,1,6.23-9.47h0L144,45h0a30,30,0,0,1,20.83-8.64h.72a29.92,29.92,0,0,1,10.69,2.15l0-.07.67.27,0,.07a30.13,30.13,0,0,1,9.35,6.33l.13-.13.51.51-.14.14a30.05,30.05,0,0,1,6,9l.26-.11Z"/><path class="cls-2" d="M164.8,63.73v-4a6.84,6.84,0,0,0-2,.41l1.54,3.66Z"/><path class="cls-2" d="M167.8,67.34l3.68,1.5a6.87,6.87,0,0,0,.4-1.82h-4C167.87,67.13,167.83,67.24,167.8,67.34Z"/><path class="cls-2" d="M167.28,68.27l2.81,2.81a6.68,6.68,0,0,0,1.1-1.58L167.5,68A2.88,2.88,0,0,1,167.28,68.27Z"/><path class="cls-2" d="M164.52,69.19,163,72.88a6.45,6.45,0,0,0,1.77.33v-4Z"/><path class="cls-2" d="M163.7,64.12l-1.55-3.67a6.54,6.54,0,0,0-1.59,1.1l2.81,2.81A2,2,0,0,1,163.7,64.12Z"/><path class="cls-2" d="M162.84,68l-3.67,1.55a7.25,7.25,0,0,0,1.06,1.5L163,68.27A2.31,2.31,0,0,1,162.84,68Z"/><path class="cls-2" d="M166.5,68.91l1.55,3.66a6.62,6.62,0,0,0,1.52-1l-2.82-2.82A2.07,2.07,0,0,1,166.5,68.91Z"/><path class="cls-2" d="M165.52,69.23v4a6.67,6.67,0,0,0,1.86-.36l-1.55-3.67Z"/><path class="cls-2" d="M163.57,68.76l-2.82,2.82a6.59,6.59,0,0,0,1.61,1l1.49-3.68A2.09,2.09,0,0,1,163.57,68.76Z"/><path class="cls-2" d="M167,64.36l2.81-2.81a6.86,6.86,0,0,0-1.67-1.14l-1.5,3.69A2.36,2.36,0,0,1,167,64.36Z"/><path class="cls-2" d="M162.88,64.89l-2.82-2.82a6.68,6.68,0,0,0-1.07,1.7l3.67,1.49A3.28,3.28,0,0,1,162.88,64.89Z"/><path class="cls-2" d="M165.93,63.81l1.49-3.68a6.61,6.61,0,0,0-1.9-.38v4A2.7,2.7,0,0,1,165.93,63.81Z"/><path class="cls-2" d="M162.43,67h-4a6.41,6.41,0,0,0,.44,1.91l3.65-1.55A2.12,2.12,0,0,1,162.43,67Z"/><path class="cls-2" d="M162.43,65.94l-3.7-1.5a6.71,6.71,0,0,0-.31,1.86h4A2.2,2.2,0,0,1,162.43,65.94Z"/><path class="cls-2" d="M167.93,66.3h4a6.65,6.65,0,0,0-.34-2l-3.67,1.55A2.71,2.71,0,0,1,167.93,66.3Z"/><path class="cls-2" d="M167.44,64.89a2.23,2.23,0,0,1,.2.33l3.65-1.54a6.59,6.59,0,0,0-1-1.61Z"/><path class="cls-2" d="M164.8,64.83h0l0,0Z"/><polygon class="cls-2" points="166.16 65.15 166.18 65.14 166.17 65.13 166.16 65.15"/><path class="cls-2" d="M165.16,73.23l-.36,0V96.44h.72V73.21Z"/><path class="cls-2" d="M165.4,68.15l-.24,0-.21,0-.15.36v.72a1.64,1.64,0,0,0,.72,0v-.79Z"/><path class="cls-2" d="M165.16,59.73l.36,0V36.33h-.72V59.75Z"/><path class="cls-2" d="M165.16,64.79a1.47,1.47,0,0,1,.36,0h0V63.73a1.64,1.64,0,0,0-.72,0v1.1A1.47,1.47,0,0,1,165.16,64.79Z"/><path class="cls-2" d="M164.8,36.32Z"/><path class="cls-2" d="M165.52,36.32h0Z"/><path class="cls-2" d="M164.8,96.44V97h.72v-.57h-.72Z"/><path class="cls-2" d="M165.16,63.69a2.2,2.2,0,0,1,.36,0v-4l-.36,0-.36,0v4A2.2,2.2,0,0,1,165.16,63.69Z"/><path class="cls-2" d="M165.16,69.27a2.2,2.2,0,0,1-.36,0v4l.36,0,.36,0v-4A2.2,2.2,0,0,1,165.16,69.27Z"/><path class="cls-2" d="M165.15,65.72l.37-.89a1.64,1.64,0,0,0-.72,0v.06Z"/><path class="cls-2" d="M165,68.15l.21,0,.24,0-.23-.55Z"/><path class="cls-2" d="M158.41,66.48c0-.06,0-.12,0-.18H135v.08c0,.22,0,.43,0,.64h23.45A4.89,4.89,0,0,1,158.41,66.48Z"/><path class="cls-2" d="M171.91,66.48a4.89,4.89,0,0,1,0,.54h23.21c0-.21,0-.42,0-.64V66.3H171.9C171.9,66.36,171.91,66.42,171.91,66.48Z"/><path class="cls-2" d="M163.55,67a1.45,1.45,0,0,1-.08-.47s0-.07,0-.11l-.16-.07h-.93c0,.06,0,.12,0,.18a2.35,2.35,0,0,0,.06.54h.95Z"/><path class="cls-2" d="M166.84,66.34s0,.09,0,.14a1.63,1.63,0,0,1-.07.45L167,67h.9a3.1,3.1,0,0,0,0-.54,1.1,1.1,0,0,0,0-.18h-1Z"/><path class="cls-2" d="M135,66.3h-.16V67H135c0-.21,0-.42,0-.64Z"/><path class="cls-2" d="M195.09,67h.42V66.3h-.4v.08C195.11,66.6,195.1,66.81,195.09,67Z"/><path class="cls-2" d="M162.37,66.48c0-.06,0-.12,0-.18h-4c0,.06,0,.12,0,.18a4.89,4.89,0,0,0,0,.54h4A2.35,2.35,0,0,1,162.37,66.48Z"/><path class="cls-2" d="M168,66.48a3.1,3.1,0,0,1,0,.54h4a4.89,4.89,0,0,0,0-.54c0-.06,0-.12,0-.18h-4A1.1,1.1,0,0,1,168,66.48Z"/><path class="cls-2" d="M163.48,66.37s0,.07,0,.11a1.45,1.45,0,0,0,.08.47l.67-.28Z"/><path class="cls-2" d="M166.78,66.93a1.63,1.63,0,0,0,.07-.45s0-.09,0-.14l-.74.31Z"/><path class="cls-2" d="M167,64.36l-.77.78a1.84,1.84,0,0,1,.45.51l.09,0,.72-.72A2.45,2.45,0,0,0,167,64.36Z"/><path class="cls-2" d="M170.26,62.07,186.73,45.6c-.16-.18-.33-.35-.5-.52L169.76,61.55C169.93,61.72,170.1,61.89,170.26,62.07Z"/><path class="cls-2" d="M164.27,67.91a2,2,0,0,1-.38-.32l-.29.12-.56.56a2.45,2.45,0,0,0,.53.49l.59-.59Z"/><path class="cls-2" d="M160.23,71.08l-16.49,16.5.52.5,16.49-16.5C160.57,71.42,160.4,71.25,160.23,71.08Z"/><path class="cls-2" d="M186.73,45.6l.14-.14-.51-.51-.13.13C186.4,45.25,186.57,45.42,186.73,45.6Z"/><path class="cls-2" d="M143.74,87.58l-.29.28.51.51.3-.29Z"/><path class="cls-2" d="M167.44,64.89l2.82-2.82c-.16-.18-.33-.35-.5-.52L167,64.36A2.45,2.45,0,0,1,167.44,64.89Z"/><path class="cls-2" d="M163,68.27l-2.81,2.81c.17.17.34.34.52.5l2.82-2.82A2.45,2.45,0,0,1,163,68.27Z"/><path class="cls-2" d="M165.82,66l.81-.34a1.84,1.84,0,0,0-.45-.51h0Z"/><path class="cls-2" d="M163.89,67.59a2,2,0,0,0,.38.32l.23-.58Z"/><path class="cls-2" d="M163.68,65.67a1.88,1.88,0,0,1,.45-.52l0-.05-.74-.74a2.73,2.73,0,0,0-.49.53l.77.77Z"/><path class="cls-2" d="M160.56,61.55,144,45l-.5.51,16.59,16.6C160.22,61.89,160.39,61.72,160.56,61.55Z"/><path class="cls-2" d="M166.44,67.57a1.46,1.46,0,0,1-.37.33l.14.32.54.54a2.45,2.45,0,0,0,.53-.49l-.61-.61Z"/><path class="cls-2" d="M169.57,71.58,186,88l.51-.51L170.09,71.08C169.92,71.25,169.75,71.42,169.57,71.58Z"/><path class="cls-2" d="M144,45h0l-.51.51h0Z"/><path class="cls-2" d="M186,88l.41.41.51-.51-.41-.41Z"/><path class="cls-2" d="M166.75,68.76l2.82,2.82c.18-.16.35-.33.52-.5l-2.81-2.81A2.45,2.45,0,0,1,166.75,68.76Z"/><path class="cls-2" d="M163.37,64.36l-2.81-2.81c-.17.17-.34.34-.5.52l2.82,2.82A2.73,2.73,0,0,1,163.37,64.36Z"/><path class="cls-2" d="M164.13,65.15a1.88,1.88,0,0,0-.45.52l.81.33Z"/><path class="cls-2" d="M166.07,67.9a1.46,1.46,0,0,0,.37-.33l-.61-.25Z"/><path class="cls-2" d="M162.36,72.61,153.6,94.18l.67.27L163,72.88A6.69,6.69,0,0,1,162.36,72.61Z"/><path class="cls-2" d="M165.52,64.83a1.68,1.68,0,0,1,.65.3l.42-1a2.6,2.6,0,0,0-.66-.29l-.41,1Z"/><path class="cls-2" d="M168.09,60.41l8.79-21.66c-.22-.1-.45-.18-.67-.27l-8.79,21.65A5.58,5.58,0,0,1,168.09,60.41Z"/><path class="cls-2" d="M164.8,68.13a1.33,1.33,0,0,1-.43-.17l-.21.21-.31.76a3.21,3.21,0,0,0,.67.26l.28-.68Z"/><path class="cls-2" d="M176.91,38.68l-.67-.27,0,.07c.22.09.45.17.67.27Z"/><path class="cls-2" d="M153.42,94.64l.66.27.19-.46-.67-.27Z"/><path class="cls-2" d="M166.59,64.1l1.5-3.69a5.58,5.58,0,0,0-.67-.28l-1.49,3.68A2.6,2.6,0,0,1,166.59,64.1Z"/><path class="cls-2" d="M163.85,68.93l-1.49,3.68a6.69,6.69,0,0,0,.67.27l1.49-3.69A3.21,3.21,0,0,1,163.85,68.93Z"/><path class="cls-2" d="M164.37,68a1.33,1.33,0,0,0,.43.17v-.6Z"/><path class="cls-2" d="M166.16,65.15v0a1.68,1.68,0,0,0-.65-.3v1Z"/><polygon class="cls-2" points="165.52 64.82 165.52 64.83 165.52 64.83 165.52 64.82"/><path class="cls-2" d="M164.8,68.51l.15-.36-.15,0Z"/><polygon class="cls-2" points="165.28 66.03 165.52 65.79 165.52 64.83 165.52 64.83 165.15 65.72 165.28 66.03"/><path class="cls-2" d="M165,67.29l-.24.24v.6l.15,0,.22-.55Z"/><path class="cls-2" d="M164.16,68.17l.21-.21a.31.31,0,0,1-.1,0Z"/><path class="cls-2" d="M164.8,67.2l-.3.13-.23.58a.31.31,0,0,0,.1,0l.43-.43Z"/><polygon class="cls-2" points="165.52 66.12 165.82 65.99 166.16 65.15 165.52 65.79 165.52 66.12"/><polygon class="cls-2" points="164.8 67.2 164.8 67.53 165.04 67.29 164.97 67.13 164.8 67.2"/><polygon class="cls-2" points="165.52 66.12 165.52 65.79 165.28 66.03 165.35 66.19 165.52 66.12"/><path class="cls-2" d="M163.49,66.3a1.56,1.56,0,0,1,.19-.61l0,0-1-.4a2.6,2.6,0,0,0-.23.68l.89.36Z"/><path class="cls-2" d="M171.19,69.5l21.49,8.72.27-.67-21.47-8.71C171.39,69.06,171.3,69.28,171.19,69.5Z"/><path class="cls-2" d="M159,63.77l-21.75-8.83c-.09.22-.18.45-.26.67l21.75,8.83A5.46,5.46,0,0,1,159,63.77Z"/><path class="cls-2" d="M166.76,67a1.87,1.87,0,0,1-.26.48l.17.16.83.34a2.83,2.83,0,0,0,.3-.66L167,67Z"/><path class="cls-2" d="M137.18,54.92l-.27.66.07,0c.08-.22.17-.45.26-.67Z"/><path class="cls-2" d="M193.14,78.41l.27-.67-.46-.19-.27.67Z"/><path class="cls-2" d="M167.5,68l3.69,1.5c.11-.22.2-.44.29-.66l-3.68-1.5A2.83,2.83,0,0,1,167.5,68Z"/><path class="cls-2" d="M162.66,65.26,159,63.77a5.46,5.46,0,0,0-.26.67l3.7,1.5A2.6,2.6,0,0,1,162.66,65.26Z"/><path class="cls-2" d="M163.68,65.69a1.56,1.56,0,0,0-.19.61h.8Z"/><path class="cls-2" d="M166.5,67.5a1.87,1.87,0,0,0,.26-.48H166Z"/><path class="cls-2" d="M163.32,66.3l.16.07s0-.05,0-.07Z"/><path class="cls-2" d="M167,67l-.22-.09s0,.06,0,.09Z"/><path class="cls-2" d="M165.79,66.78,166,67h.73s0-.06,0-.09l-.68-.28Z"/><path class="cls-2" d="M164.53,66.54l-.24-.24h-.8s0,0,0,.07l.74.3Z"/><path class="cls-2" d="M163.65,65.66l0,0v0Z"/><path class="cls-2" d="M166.67,67.66l-.17-.16-.06.07Z"/><path class="cls-2" d="M165.7,67l.13.3.61.25.06-.07L166,67Z"/><path class="cls-2" d="M164.62,66.3l-.13-.3-.81-.33v0l.61.61Z"/><polygon class="cls-2" points="164.62 66.3 164.29 66.3 164.53 66.54 164.69 66.47 164.62 66.3"/><polygon class="cls-2" points="165.7 67.02 166.03 67.02 165.79 66.78 165.63 66.85 165.7 67.02"/><path class="cls-2" d="M158.88,68.93,137.33,78c.09.23.19.44.29.66l21.55-9.11C159.06,69.37,159,69.15,158.88,68.93Z"/><path class="cls-2" d="M163.82,67.5a1.83,1.83,0,0,1-.25-.48h-.19l-.85.36a3,3,0,0,0,.31.65l.76-.32Z"/><path class="cls-2" d="M166.65,65.69a1.55,1.55,0,0,1,.18.61h.11l.95-.4a2.78,2.78,0,0,0-.25-.68l-.92.39Z"/><path class="cls-2" d="M171.29,63.68c.1.22.19.44.27.67l21.42-9c-.09-.23-.17-.45-.27-.67Z"/><path class="cls-2" d="M137.07,78.14l.28.66.27-.11c-.1-.22-.2-.43-.29-.66Z"/><path class="cls-2" d="M193,55.3l.27-.12-.28-.66-.26.11C192.81,54.85,192.89,55.07,193,55.3Z"/><path class="cls-2" d="M167.89,65.9l3.67-1.55c-.08-.23-.17-.45-.27-.67l-3.65,1.54A2.78,2.78,0,0,1,167.89,65.9Z"/><path class="cls-2" d="M162.53,67.38l-3.65,1.55c.09.22.18.44.29.65L162.84,68A3,3,0,0,1,162.53,67.38Z"/><path class="cls-2" d="M166.83,66.3a1.55,1.55,0,0,0-.18-.61l-.62.61Z"/><path class="cls-2" d="M163.57,67a1.83,1.83,0,0,0,.25.48l.47-.48Z"/><path class="cls-2" d="M163.38,67h.19a.14.14,0,0,1,0-.07Z"/><path class="cls-2" d="M166.94,66.3h-.11v0Z"/><path class="cls-2" d="M164.52,66.79l-.3-.12-.67.28a.14.14,0,0,0,0,.07h.72Z"/><path class="cls-2" d="M165.8,66.53l.3.12.74-.31v0H166Z"/><path class="cls-2" d="M166.72,65.61l-.09,0,0,0Z"/><path class="cls-2" d="M163.6,67.71l.29-.12-.07-.09Z"/><path class="cls-2" d="M165.7,66.3H166l.62-.61,0,0-.81.34Z"/><path class="cls-2" d="M164.63,67h-.34l-.47.48.07.09.61-.26Z"/><polygon class="cls-2" points="165.8 66.53 166.03 66.3 165.69 66.3 165.63 66.46 165.8 66.53"/><polygon class="cls-2" points="164.52 66.79 164.29 67.02 164.63 67.02 164.69 66.86 164.52 66.79"/><polygon class="cls-2" points="164.63 67.02 164.5 67.33 164.8 67.2 164.8 67.02 164.63 67.02"/><polygon class="cls-2" points="165.52 66.3 165.69 66.3 165.82 65.99 165.52 66.12 165.52 66.3"/><polygon class="cls-2" points="164.92 67.02 164.8 67.02 164.8 67.2 164.97 67.13 164.92 67.02"/><polygon class="cls-2" points="165.4 66.3 165.52 66.3 165.52 66.12 165.35 66.19 165.4 66.3"/><polygon class="cls-2" points="164.8 66.9 164.69 66.86 164.63 67.02 164.8 67.02 164.8 66.9"/><polygon class="cls-2" points="165.52 66.42 165.63 66.46 165.69 66.3 165.52 66.3 165.52 66.42"/><polygon class="cls-2" points="164.8 66.9 164.8 67.02 164.92 67.02 164.89 66.94 164.8 66.9"/><polygon class="cls-2" points="165.43 66.38 165.52 66.42 165.52 66.3 165.4 66.3 165.43 66.38"/><polygon class="cls-2" points="165.79 66.78 166.1 66.66 165.8 66.53 165.67 66.66 165.79 66.78"/><polygon class="cls-2" points="164.53 66.54 164.22 66.67 164.52 66.79 164.65 66.66 164.53 66.54"/><polygon class="cls-2" points="165.58 66.58 165.67 66.66 165.8 66.53 165.63 66.46 165.58 66.58"/><polygon class="cls-2" points="164.74 66.75 164.65 66.66 164.52 66.79 164.69 66.86 164.74 66.75"/><polygon class="cls-2" points="165.59 66.75 165.63 66.85 165.79 66.78 165.67 66.66 165.59 66.75"/><polygon class="cls-2" points="164.74 66.58 164.69 66.47 164.53 66.54 164.65 66.66 164.74 66.58"/><polygon class="cls-2" points="165.59 66.75 165.67 66.66 165.58 66.58 165.55 66.66 165.59 66.75"/><polygon class="cls-2" points="164.74 66.58 164.65 66.66 164.74 66.75 164.77 66.66 164.74 66.58"/><polygon class="cls-2" points="165.58 66.58 165.63 66.46 165.52 66.42 165.52 66.51 165.58 66.58"/><polygon class="cls-2" points="164.74 66.75 164.69 66.86 164.8 66.9 164.8 66.81 164.74 66.75"/><polygon class="cls-2" points="164.86 66.87 164.8 66.81 164.8 66.9 164.89 66.94 164.86 66.87"/><polygon class="cls-2" points="165.47 66.46 165.52 66.51 165.52 66.42 165.43 66.38 165.47 66.46"/><polygon class="cls-2" points="164.8 66.73 164.77 66.66 164.74 66.75 164.8 66.81 164.8 66.73"/><polygon class="cls-2" points="165.52 66.59 165.55 66.66 165.58 66.58 165.52 66.51 165.52 66.59"/><polygon class="cls-2" points="165.52 66.51 165.47 66.46 165.52 66.59 165.52 66.51"/><polygon class="cls-2" points="164.8 66.81 164.86 66.87 164.8 66.73 164.8 66.81"/><path class="cls-2" d="M164.14,65.14a1.64,1.64,0,0,1,.64-.3l-.43-1a3,3,0,0,0-.65.3l.41,1Z"/><path class="cls-2" d="M166,68a1.25,1.25,0,0,1-.43.17v.31l.31.74a2.61,2.61,0,0,0,.67-.27l-.29-.69Z"/><path class="cls-2" d="M153.68,38.57l-.66.28,9.13,21.6a6.58,6.58,0,0,1,.66-.29Z"/><path class="cls-2" d="M167.38,72.85l9,21.36.66-.28-9-21.36C167.83,72.67,167.61,72.77,167.38,72.85Z"/><path class="cls-2" d="M176.64,94.75l.66-.28-.23-.54-.66.28Z"/><path class="cls-2" d="M165.83,69.18l1.55,3.67c.23-.08.45-.18.67-.28l-1.55-3.66A2.61,2.61,0,0,1,165.83,69.18Z"/><path class="cls-2" d="M164.35,63.82l-1.54-3.66a6.58,6.58,0,0,0-.66.29l1.55,3.67A3,3,0,0,1,164.35,63.82Z"/><path class="cls-2" d="M165.52,68.13A1.25,1.25,0,0,0,166,68l-.43-.43Z"/><path class="cls-2" d="M164.8,64.89l0,0a1.64,1.64,0,0,0-.64.3l.66.65Z"/><path class="cls-2" d="M165.52,68.44v-.31l-.12,0Z"/><polygon class="cls-2" points="165.15 65.72 164.8 64.89 164.8 65.79 165.03 66.02 165.15 65.72"/><path class="cls-2" d="M165.29,67.3l-.12.3.23.55.12,0v-.6Z"/><path class="cls-2" d="M166.21,68.22l-.14-.32L166,68Z"/><path class="cls-2" d="M164.11,65.1l0,.05h0Z"/><path class="cls-2" d="M165.52,67.2v.33L166,68l.12-.06-.24-.58Z"/><path class="cls-2" d="M164.8,66.13v-.34l-.66-.65h0l.36.85Z"/><polygon class="cls-2" points="165.03 66.02 164.8 65.79 164.8 66.13 164.96 66.19 165.03 66.02"/><polygon class="cls-2" points="165.29 67.3 165.52 67.53 165.52 67.2 165.36 67.13 165.29 67.3"/><polygon class="cls-2" points="165.16 66.15 165.28 66.03 165.15 65.72 165.03 66.02 165.16 66.15"/><polygon class="cls-2" points="165.04 67.29 165.17 67.6 165.29 67.3 165.16 67.17 165.04 67.29"/><polygon class="cls-2" points="165.24 66.24 165.35 66.19 165.28 66.03 165.16 66.15 165.24 66.24"/><polygon class="cls-2" points="165.08 67.09 164.97 67.13 165.04 67.29 165.16 67.17 165.08 67.09"/><polygon class="cls-2" points="165.25 67.08 165.16 67.17 165.29 67.3 165.36 67.13 165.25 67.08"/><polygon class="cls-2" points="165.16 66.15 165.03 66.02 164.96 66.19 165.07 66.24 165.16 66.15"/><polygon class="cls-2" points="165.08 67.09 165.16 67.17 165.25 67.08 165.16 67.05 165.08 67.09"/><polygon class="cls-2" points="165.16 66.27 165.24 66.24 165.16 66.15 165.07 66.24 165.16 66.27"/><polygon class="cls-2" points="164.8 66.13 164.49 66 164.62 66.3 164.8 66.3 164.8 66.13"/><polygon class="cls-2" points="165.52 67.2 165.83 67.32 165.7 67.02 165.52 67.02 165.52 67.2"/><polygon class="cls-2" points="165.4 67.02 165.36 67.13 165.52 67.2 165.52 67.02 165.4 67.02"/><polygon class="cls-2" points="164.92 66.3 164.96 66.19 164.8 66.13 164.8 66.3 164.92 66.3"/><polygon class="cls-2" points="165.52 66.9 165.52 67.02 165.7 67.02 165.63 66.85 165.52 66.9"/><polygon class="cls-2" points="164.8 66.42 164.8 66.3 164.62 66.3 164.69 66.47 164.8 66.42"/><polygon class="cls-2" points="164.92 66.3 164.8 66.3 164.8 66.42 164.88 66.39 164.92 66.3"/><polygon class="cls-2" points="165.4 67.02 165.52 67.02 165.52 66.9 165.44 66.94 165.4 67.02"/><polygon class="cls-2" points="165.25 67.08 165.36 67.13 165.4 67.02 165.31 67.02 165.25 67.08"/><polygon class="cls-2" points="165.07 66.24 164.96 66.19 164.92 66.3 165.01 66.3 165.07 66.24"/><polygon class="cls-2" points="165.37 66.97 165.31 67.02 165.4 67.02 165.44 66.94 165.37 66.97"/><polygon class="cls-2" points="164.96 66.36 165.01 66.3 164.92 66.3 164.88 66.39 164.96 66.36"/><polygon class="cls-2" points="165.16 66.27 165.07 66.24 165.01 66.3 165.09 66.3 165.16 66.27"/><polygon class="cls-2" points="165.23 67.02 165.16 67.05 165.25 67.08 165.31 67.02 165.23 67.02"/><polygon class="cls-2" points="165.01 66.3 164.96 66.36 165.09 66.3 165.01 66.3"/><polygon class="cls-2" points="165.31 67.02 165.37 66.97 165.23 67.02 165.31 67.02"/><polygon class="cls-2" points="165.4 66.3 165.35 66.19 165.24 66.24 165.31 66.3 165.4 66.3"/><polygon class="cls-2" points="164.92 67.02 164.97 67.13 165.08 67.09 165.01 67.02 164.92 67.02"/><polygon class="cls-2" points="165.36 66.36 165.43 66.38 165.4 66.3 165.31 66.3 165.36 66.36"/><polygon class="cls-2" points="164.96 66.97 164.89 66.94 164.92 67.02 165.01 67.02 164.96 66.97"/><polygon class="cls-2" points="165.09 67.02 165.01 67.02 165.08 67.09 165.16 67.05 165.09 67.02"/><polygon class="cls-2" points="165.23 66.3 165.31 66.3 165.24 66.24 165.16 66.27 165.23 66.3"/><polygon class="cls-2" points="165.01 67.02 165.09 67.02 164.96 66.97 165.01 67.02"/><polygon class="cls-2" points="165.31 66.3 165.23 66.3 165.36 66.36 165.31 66.3"/><polygon class="cls-2" points="165.52 66.9 165.63 66.85 165.59 66.75 165.52 66.81 165.52 66.9"/><polygon class="cls-2" points="164.8 66.42 164.69 66.47 164.74 66.58 164.8 66.51 164.8 66.42"/><polygon class="cls-2" points="165.47 66.86 165.44 66.94 165.52 66.9 165.52 66.81 165.47 66.86"/><polygon class="cls-2" points="164.85 66.46 164.88 66.39 164.8 66.42 164.8 66.51 164.85 66.46"/><polygon class="cls-2" points="164.8 66.59 164.8 66.51 164.74 66.58 164.77 66.66 164.8 66.59"/><polygon class="cls-2" points="165.52 66.73 165.52 66.81 165.59 66.75 165.55 66.66 165.52 66.73"/><polygon class="cls-2" points="164.8 66.51 164.8 66.59 164.85 66.46 164.8 66.51"/><polygon class="cls-2" points="165.52 66.81 165.52 66.73 165.47 66.86 165.52 66.81"/><polygon class="cls-2" points="164.89 66.94 164.96 66.97 164.86 66.87 164.89 66.94"/><polygon class="cls-2" points="165.47 66.46 165.43 66.38 165.36 66.36 165.47 66.46"/><polygon class="cls-2" points="164.88 66.39 164.85 66.46 164.96 66.36 164.88 66.39"/><polygon class="cls-2" points="165.44 66.94 165.47 66.86 165.37 66.97 165.44 66.94"/><polygon class="cls-2" points="165.16 67.05 165.23 67.02 165.09 67.02 165.16 67.05"/><polygon class="cls-2" points="165.23 66.3 165.16 66.27 165.09 66.3 165.23 66.3"/><polygon class="cls-2" points="164.77 66.66 164.8 66.73 164.8 66.59 164.77 66.66"/><polygon class="cls-2" points="165.55 66.66 165.52 66.59 165.52 66.73 165.55 66.66"/><polygon class="cls-2" points="165.23 66.3 165.09 66.3 164.96 66.36 164.85 66.46 164.8 66.59 164.8 66.73 164.86 66.87 164.96 66.97 165.09 67.02 165.23 67.02 165.37 66.97 165.47 66.86 165.52 66.73 165.52 66.59 165.47 66.46 165.36 66.36 165.23 66.3"/><path class="cls-2" d="M120.67,73.45c0-.73-2.2-1.23-2.34-1.91s1.7-2,1.43-2.65-2.5-.28-2.89-.87.81-2.5.31-3-2.41.7-3,.31-.21-2.62-.87-2.89-2,1.57-2.65,1.43-1.19-2.34-1.91-2.34-1.22,2.2-1.91,2.34-2-1.7-2.65-1.43-.28,2.49-.86,2.89-2.5-.81-3-.31.7,2.41.3,3-2.62.21-2.89.87,1.57,1.94,1.43,2.65-2.33,1.18-2.33,1.91,2.2,1.22,2.33,1.9-1.7,2-1.43,2.66,2.5.27,2.89.86-.81,2.5-.3,3,2.41-.7,3-.3.2,2.61.86,2.89,2-1.57,2.65-1.43,1.19,2.33,1.91,2.33,1.22-2.2,1.91-2.33,2,1.7,2.65,1.43.28-2.5.87-2.89,2.49.8,3,.3-.7-2.41-.31-3,2.62-.2,2.89-.86-1.57-2-1.43-2.66S120.67,74.17,120.67,73.45Zm-6.19-5.62-4.69,3.49-.21-.1V65.46A8,8,0,0,1,114.48,67.83Zm-5.77,6.68a1.19,1.19,0,1,1,1.19-1.19A1.19,1.19,0,0,1,108.71,74.51Zm-.88-9v5.72a3,3,0,0,0-.36.18L102.89,68A8.08,8.08,0,0,1,107.83,65.47Zm-7.1,8A8,8,0,0,1,102,69.14l4.55,3.38a2.3,2.3,0,0,0-.14.79,2.18,2.18,0,0,0,.09.63l-4.69,3.49A7.89,7.89,0,0,1,100.73,73.45Zm1.91,5.2,4.7-3.49a2.34,2.34,0,0,0,.49.27v6A8,8,0,0,1,102.64,78.65Zm6.94,2.78v-6a2.31,2.31,0,0,0,.35-.18l4.81,3.58A8,8,0,0,1,109.58,81.43Zm6-3.84L110.83,74a2.08,2.08,0,0,0,.12-.71,2.29,2.29,0,0,0-.17-.87L115.42,69a8,8,0,0,1,.21,8.6Z"/><path class="cls-3" d="M107.83,64.61a8.71,8.71,0,0,0-7.71,6.68A9.59,9.59,0,0,1,107.83,64.61Z"/><path class="cls-3" d="M109.58,82.07a8.7,8.7,0,0,0,7.71-6.68A9.56,9.56,0,0,1,109.58,82.07Z"/><path class="cls-2" d="M109.06,86a12.51,12.51,0,1,1,0-25h53.12l1.46-.7,1,12.74L113.43,85.17a12.69,12.69,0,0,1-3,.71h0A12.34,12.34,0,0,1,109.06,86Zm1.24-1.11.06.52,0-.52a11.69,11.69,0,0,0,2.79-.66l.06,0,50.37-12-.82-10.33-.29.14H109.06a11.47,11.47,0,0,0,0,22.93A10.43,10.43,0,0,0,110.3,84.84Z"/><path class="cls-2" d="M50.46,28.35l3.54,1L47.51,50.12A29.69,29.69,0,0,1,36.65,65.26l-1.43,1-1.75-3.08h0a29.65,29.65,0,0,0,10.76-15Z"/><path class="cls-2" d="M69,87.37a1,1,0,0,1-.56-.16,1.05,1.05,0,0,1-.33-1.44c3.39-5.37,5-12,5-20.83A39.13,39.13,0,0,0,34,25.85a1,1,0,1,1,0-2.09A41.22,41.22,0,0,1,75.17,64.94c0,9.26-1.67,16.23-5.28,21.94A1,1,0,0,1,69,87.37Z"/><path class="cls-2" d="M207.13,63a42.85,42.85,0,0,0-84.61-3.61c-1.73,9.34-1.34,16.69,1.22,23.12a1.1,1.1,0,0,0,.81.66,1,1,0,0,0,.59-.06,1.07,1.07,0,0,0,.6-1.39c-2.41-6-2.77-13-1.11-21.94a40.16,40.16,0,0,1,35.88-32.63,1.09,1.09,0,0,0,.62.13,39.2,39.2,0,0,1,6.93-.08c1.09.11,2.19.25,3.3.46a1.24,1.24,0,0,0,.43,0A40.15,40.15,0,0,1,205,63.2c.9,9,0,16-3,21.77a1.08,1.08,0,0,0,.48,1.44,1.1,1.1,0,0,0,.59.1,1.05,1.05,0,0,0,.85-.58C207.06,79.73,208.07,72.44,207.13,63Z"/><rect class="cls-2" x="49.55" y="25.79" width="6.62" height="3.09" rx="0.24" transform="translate(16.72 -19.94) rotate(25.26)"/><rect class="cls-2" x="54.76" y="7.68" width="3.64" height="19.36" transform="translate(9.32 -18.26) rotate(19.95)"/><rect class="cls-2" x="76.12" y="9.28" width="3.14" height="67.32" transform="translate(-7.79 66.89) rotate(-44.58)"/><rect class="cls-2" x="85.41" y="34.28" width="75.27" height="3.14" transform="translate(43.14 136.05) rotate(-67.67)"/><rect class="cls-2" x="147.43" y="7.68" width="3.14" height="64.81" transform="translate(-0.14 79.64) rotate(-29.91)"/><path class="cls-2" d="M140.54,25.33a1.57,1.57,0,0,1,0-3.14l44.27-.06h0a1.57,1.57,0,1,1,0,3.13l-44.27.07Z"/><path class="cls-2" d="M92.49,24.38A58,58,0,0,1,67,18.5l-8.57-4.2,1.38-2.82,8.57,4.2a54.85,54.85,0,0,0,36,4.25l26.67-6,.69,3.06-26.67,6A57.64,57.64,0,0,1,92.49,24.38Z"/><path class="cls-2" d="M119.25-3.58h13.51a7.45,7.45,0,0,0,2.65-.48l6-2.23a4.17,4.17,0,0,1,4.46,1h0a2,2,0,0,1-.3,3l-6.38,4.65a6.79,6.79,0,0,1-4,1.29l-7.05,0A19,19,0,0,1,121,2.7l-4.9-1.63a1.79,1.79,0,0,1-.77-2.89h0A5.33,5.33,0,0,1,119.25-3.58Z"/><path class="cls-2" d="M60.12,9.19l-2-.71,3.4-9.32A2,2,0,0,1,62.65-2a1.83,1.83,0,0,1,.77-.16l-.54-.25L54.26-6.91A3.28,3.28,0,0,1,53-11.36,3.23,3.23,0,0,1,56.17-13l10.87,1-.2,2.08L56-10.9a1.17,1.17,0,0,0-1.12.58,1.17,1.17,0,0,0,.43,1.58l8.54,4.48,3.39,1.51A2,2,0,0,1,68.27-.24,2,2,0,0,1,67.18.9,2,2,0,0,1,65.6.9L63.49,0Z"/><line class="cls-1" x1="-96.33" y1="117.95" x2="308.41" y2="117.95"/><text class="cls-4" transform="translate(-89.33 186.31)">BIKE SHOP</text></svg>